<?xml version="1.0" encoding="UTF-8"?>
<svg width="551px" height="247px" viewBox="0 0 551 247" version="1.1" xmlns="http://www.w3.org/2000/svg" xmlns:xlink="http://www.w3.org/1999/xlink">
    <title>Group</title>
    <g id="Logo" stroke="none" stroke-width="1" fill="none" fill-rule="evenodd">
        <g id="logo---shape" transform="translate(-61.000000, -59.000000)">
            <g id="Group" transform="translate(61.000000, 59.000000)">
                <path d="M247,0 L247,247 L0,247 L0,0 L247,0 Z M164.969602,135.151872 C151.464992,150.090085 117.581976,168.975198 92.4220741,177.446349 C102.911045,184.412057 116.163163,187.151433 129.362459,183.941408 C151.887045,178.464239 166.597593,157.530668 164.969602,135.151872 Z M213.536755,90.3784335 C213.536755,90.3784335 206.81139,88.3400119 201.274003,93.1653506 C197.827861,96.1693682 195.319847,99.0629868 193.596776,101.349674 C192.868353,98.7502773 190.521976,98.6890032 189.296493,99.8120103 C188.091083,100.916001 186.409741,102.604738 185.269831,106.631928 L185.269831,106.631928 L190.755452,106.777718 L190.164426,107.186589 C182.374424,112.548936 170.4927,119.698903 162.519165,123.211338 C154.747385,100.639739 130.917026,87.285674 107.257283,93.0396329 C82.1554859,99.143277 66.7545472,124.440518 72.8587195,149.542844 C74.0329645,154.372408 75.9266524,158.834856 78.3839568,162.861518 C67.5384336,164.314666 59.6721015,163.180566 56.3342454,159.447069 C51.5052091,154.046493 57.7314015,146.480193 65.9241769,140.785924 C66.0282373,139.085038 66.1328259,135.231634 66.6187932,133.42616 C47.8741879,139.527163 30.1052149,158.923598 34.1408567,169.181206 C39.7870576,183.531505 85.1764068,174.976367 133.689681,150.347859 C151.415868,141.347955 175.488154,125.094461 192.761651,109.802337 L192.761651,109.802337 L191.762249,114.530482 L192.159147,114.494637 C196.060784,114.106362 197.957498,112.836906 199.231884,111.899391 C200.455254,110.999295 200.888927,108.988341 199.116203,107.719544 C201.662777,106.470291 204.908194,104.596676 208.427759,101.869448 C214.234541,97.3716091 213.536755,90.3784335 213.536755,90.3784335 Z M169.183784,59.117 C162.12775,59.117 156.408654,64.8376807 156.408654,71.8937151 C156.408654,78.9492213 162.12775,84.6683173 169.183784,84.6683173 C176.239819,84.6683173 181.959443,78.9492213 181.959443,71.8937151 C181.959443,64.8376807 176.239819,59.117 169.183784,59.117 Z" id="Combined-Shape" fill="#DD6B21"></path>
                <path d="M379.94,138.4 L401.5,135.88 L365.24,41.8 L344.8,41.8 L308.4,137 L330.24,137 L337.66,116.42 L372.24,116.42 L379.94,138.4 Z M365.8,99.06 L343.96,99.06 L354.6,69.52 L365.8,99.06 Z M446.1775,138.82 C449.070833,138.82 452.174167,138.563333 455.4875,138.05 C458.800833,137.536667 462.0675,136.79 465.2875,135.81 C468.5075,134.83 471.330833,133.686667 473.7575,132.38 L465.4975,116 C462.790833,117.4 459.804167,118.543333 456.5375,119.43 C453.270833,120.316667 449.770833,120.76 446.0375,120.76 C442.490833,120.76 439.224167,120.013333 436.2375,118.52 C433.250833,117.026667 430.660833,114.88 428.4675,112.08 C426.274167,109.28 424.5475,105.99 423.2875,102.21 C422.0275,98.43 421.3975,94.2533333 421.3975,89.68 C421.3975,83.1466667 422.540833,77.5233333 424.8275,72.81 C427.114167,68.0966667 430.1475,64.4566667 433.9275,61.89 C437.7075,59.3233333 441.744167,58.04 446.0375,58.04 C448.5575,58.04 450.750833,58.18 452.6175,58.46 C454.484167,58.74 456.4675,59.16 458.5675,59.72 C460.6675,60.28 463.210833,61.0733333 466.1975,62.1 L472.7775,46.98 C470.2575,45.3933333 467.3875,44.0866667 464.1675,43.06 C460.9475,42.0333333 457.774167,41.2633333 454.6475,40.75 C451.520833,40.2366667 448.6975,39.98 446.1775,39.98 C439.1775,39.98 432.784167,41.1933333 426.9975,43.62 C421.210833,46.0466667 416.194167,49.4766667 411.9475,53.91 C407.700833,58.3433333 404.434167,63.6166667 402.1475,69.73 C399.860833,75.8433333 398.7175,82.54 398.7175,89.82 C398.7175,96.82 399.7675,103.306667 401.8675,109.28 C403.9675,115.253333 407.0475,120.456667 411.1075,124.89 C415.1675,129.323333 420.1375,132.753333 426.0175,135.18 C431.8975,137.606667 438.6175,138.82 446.1775,138.82 Z M546.575,137 L543.775,119.92 L500.095,119.92 L500.095,97.66 L532.995,97.66 L530.335,80.44 L500.095,80.44 L500.095,59.02 L540.975,59.02 L538.315,41.8 L478.255,41.8 L478.255,137 L546.575,137 Z" id="ACE" fill="#000000" fill-rule="nonzero"></path>
                <path d="M315.518,206 L315.518,183.788 L323.942,183.788 L323.618,181.52 L304.43,181.52 L304.43,183.788 L312.638,183.788 L312.638,206 L315.518,206 Z M342.374,206 L342.05,203.768 L330.458,203.768 L330.458,194.588 L339.278,194.588 L338.954,192.428 L330.458,192.428 L330.458,183.68 L341.33,183.68 L341.006,181.52 L327.65,181.52 L327.65,206 L342.374,206 Z M355.946,206.504 C356.642,206.504 357.386,206.444 358.178,206.324 C358.97,206.204 359.732,206.036 360.464,205.82 C361.196,205.604 361.814,205.364 362.318,205.1 L361.238,202.976 C360.566,203.264 359.81,203.516 358.97,203.732 C358.13,203.948 357.086,204.056 355.838,204.056 C354.542,204.056 353.384,203.792 352.364,203.264 C351.344,202.736 350.48,201.998 349.772,201.05 C349.064,200.102 348.53,199.016 348.17,197.792 C347.81,196.568 347.63,195.26 347.63,193.868 C347.63,191.828 348.008,190.028 348.764,188.468 C349.52,186.908 350.54,185.684 351.824,184.796 C353.108,183.908 354.554,183.464 356.162,183.464 C356.978,183.464 357.674,183.506 358.25,183.59 C358.826,183.674 359.36,183.794 359.852,183.95 C360.344,184.106 360.854,184.292 361.382,184.508 L362.282,182.42 C361.73,182.084 361.076,181.814 360.32,181.61 C359.564,181.406 358.808,181.256 358.052,181.16 C357.296,181.064 356.666,181.016 356.162,181.016 C354.386,181.016 352.784,181.34 351.356,181.988 C349.928,182.636 348.716,183.548 347.72,184.724 C346.724,185.9 345.962,187.268 345.434,188.828 C344.906,190.388 344.642,192.08 344.642,193.904 C344.642,195.608 344.876,197.216 345.344,198.728 C345.812,200.24 346.52,201.578 347.468,202.742 C348.416,203.906 349.598,204.824 351.014,205.496 C352.43,206.168 354.074,206.504 355.946,206.504 Z M369.266,206 L369.266,194.804 L380.786,194.804 L380.786,206 L383.63,206 L383.63,181.52 L380.786,181.52 L380.786,192.536 L369.266,192.536 L369.266,181.34 L366.458,181.52 L366.458,206 L369.266,206 Z M393.134,206 L393.134,186.812 L394.07,188.396 L406.562,206 L408.83,206 L408.83,181.52 L405.95,181.52 L405.95,200.492 L404.474,198.08 L392.558,181.52 L390.326,181.52 L390.326,206 L393.134,206 Z M425.138,206.504 C427.394,206.456 429.392,205.874 431.132,204.758 C432.872,203.642 434.24,202.112 435.236,200.168 C436.232,198.224 436.73,196.028 436.73,193.58 C436.73,191.132 436.238,188.96 435.254,187.064 C434.27,185.168 432.914,183.674 431.186,182.582 C429.458,181.49 427.49,180.944 425.282,180.944 C423.05,180.992 421.064,181.58 419.324,182.708 C417.584,183.836 416.216,185.366 415.22,187.298 C414.224,189.23 413.726,191.42 413.726,193.868 C413.726,196.316 414.212,198.494 415.184,200.402 C416.156,202.31 417.506,203.804 419.234,204.884 C420.962,205.964 422.93,206.504 425.138,206.504 Z M425.066,204.02 C423.434,204.02 421.994,203.582 420.746,202.706 C419.498,201.83 418.514,200.624 417.794,199.088 C417.074,197.552 416.714,195.8 416.714,193.832 C416.714,191.816 417.086,190.028 417.83,188.468 C418.574,186.908 419.594,185.684 420.89,184.796 C422.186,183.908 423.674,183.464 425.354,183.464 C426.962,183.464 428.396,183.896 429.656,184.76 C430.916,185.624 431.906,186.824 432.626,188.36 C433.346,189.896 433.706,191.648 433.706,193.616 C433.706,195.632 433.334,197.426 432.59,198.998 C431.846,200.57 430.826,201.8 429.53,202.688 C428.234,203.576 426.746,204.02 425.066,204.02 Z M456.134,206 L455.846,203.768 L444.434,203.768 L444.434,181.52 L441.626,181.52 L441.626,206 L456.134,206 Z M469.454,206.504 C471.71,206.456 473.708,205.874 475.448,204.758 C477.188,203.642 478.556,202.112 479.552,200.168 C480.548,198.224 481.046,196.028 481.046,193.58 C481.046,191.132 480.554,188.96 479.57,187.064 C478.586,185.168 477.23,183.674 475.502,182.582 C473.774,181.49 471.806,180.944 469.598,180.944 C467.366,180.992 465.38,181.58 463.64,182.708 C461.9,183.836 460.532,185.366 459.536,187.298 C458.54,189.23 458.042,191.42 458.042,193.868 C458.042,196.316 458.528,198.494 459.5,200.402 C460.472,202.31 461.822,203.804 463.55,204.884 C465.278,205.964 467.246,206.504 469.454,206.504 Z M469.382,204.02 C467.75,204.02 466.31,203.582 465.062,202.706 C463.814,201.83 462.83,200.624 462.11,199.088 C461.39,197.552 461.03,195.8 461.03,193.832 C461.03,191.816 461.402,190.028 462.146,188.468 C462.89,186.908 463.91,185.684 465.206,184.796 C466.502,183.908 467.99,183.464 469.67,183.464 C471.278,183.464 472.712,183.896 473.972,184.76 C475.232,185.624 476.222,186.824 476.942,188.36 C477.662,189.896 478.022,191.648 478.022,193.616 C478.022,195.632 477.65,197.426 476.906,198.998 C476.162,200.57 475.142,201.8 473.846,202.688 C472.55,203.576 471.062,204.02 469.382,204.02 Z M496.418,206.504 C497.234,206.504 498.068,206.432 498.92,206.288 C499.772,206.144 500.582,205.94 501.35,205.676 C502.118,205.412 502.754,205.124 503.258,204.812 L503.258,193.4 L495.41,193.4 L495.158,195.56 L500.558,195.56 L500.558,203.336 C500.006,203.528 499.382,203.696 498.686,203.84 C497.99,203.984 497.222,204.056 496.382,204.056 C494.63,204.056 493.052,203.642 491.648,202.814 C490.244,201.986 489.14,200.804 488.336,199.268 C487.532,197.732 487.13,195.932 487.13,193.868 C487.13,192.212 487.394,190.736 487.922,189.44 C488.45,188.144 489.176,187.058 490.1,186.182 C491.024,185.306 492.062,184.634 493.214,184.166 C494.366,183.698 495.566,183.464 496.814,183.464 C497.63,183.464 498.326,183.506 498.902,183.59 C499.478,183.674 500.006,183.794 500.486,183.95 C500.966,184.106 501.47,184.292 501.998,184.508 L502.898,182.42 C502.394,182.084 501.752,181.814 500.972,181.61 C500.192,181.406 499.418,181.256 498.65,181.16 C497.882,181.064 497.246,181.016 496.742,181.016 C494.966,181.016 493.31,181.322 491.774,181.934 C490.238,182.546 488.9,183.428 487.76,184.58 C486.62,185.732 485.732,187.094 485.096,188.666 C484.46,190.238 484.142,191.984 484.142,193.904 C484.142,196.28 484.64,198.416 485.636,200.312 C486.632,202.208 488.06,203.714 489.92,204.83 C491.78,205.946 493.946,206.504 496.418,206.504 Z M511.322,206 L511.322,181.52 L508.514,181.52 L508.514,206 L511.322,206 Z M532.742,206 L532.418,203.768 L520.826,203.768 L520.826,194.588 L529.646,194.588 L529.322,192.428 L520.826,192.428 L520.826,183.68 L531.698,183.68 L531.374,181.52 L518.018,181.52 L518.018,206 L532.742,206 Z M542.102,206.468 C543.95,206.468 545.516,206.192 546.8,205.64 C548.084,205.088 549.068,204.332 549.752,203.372 C550.436,202.412 550.778,201.308 550.778,200.06 C550.778,199.172 550.634,198.386 550.346,197.702 C550.058,197.018 549.638,196.4 549.086,195.848 C548.534,195.296 547.862,194.78 547.07,194.3 C546.278,193.82 545.354,193.352 544.298,192.896 C542.882,192.2 541.682,191.582 540.698,191.042 C539.714,190.502 538.976,189.92 538.484,189.296 C537.992,188.672 537.746,187.928 537.746,187.064 C537.746,185.912 538.232,185.012 539.204,184.364 C540.176,183.716 541.43,183.392 542.966,183.392 C543.782,183.392 544.496,183.458 545.108,183.59 C545.72,183.722 546.272,183.884 546.764,184.076 C547.256,184.268 547.706,184.46 548.114,184.652 L549.086,182.456 C548.318,182.072 547.382,181.724 546.278,181.412 C545.174,181.1 544.022,180.944 542.822,180.944 C541.214,180.944 539.828,181.22 538.664,181.772 C537.5,182.324 536.6,183.056 535.964,183.968 C535.328,184.88 535.01,185.924 535.01,187.1 C535.01,187.94 535.148,188.708 535.424,189.404 C535.7,190.1 536.108,190.742 536.648,191.33 C537.188,191.918 537.86,192.458 538.664,192.95 C539.468,193.442 540.398,193.928 541.454,194.408 C542.87,194.984 544.058,195.542 545.018,196.082 C545.978,196.622 546.704,197.204 547.196,197.828 C547.688,198.452 547.934,199.208 547.934,200.096 C547.934,200.84 547.712,201.518 547.268,202.13 C546.824,202.742 546.17,203.216 545.306,203.552 C544.442,203.888 543.362,204.056 542.066,204.056 C541.322,204.056 540.566,203.978 539.798,203.822 C539.03,203.666 538.328,203.468 537.692,203.228 C537.056,202.988 536.51,202.772 536.054,202.58 L535.406,204.812 C535.742,205.028 536.174,205.238 536.702,205.442 C537.23,205.646 537.818,205.82 538.466,205.964 C539.114,206.108 539.756,206.228 540.392,206.324 C541.028,206.42 541.598,206.468 542.102,206.468 Z" id="TECHNOLOGIES" fill="#000000" fill-rule="nonzero"></path>
            </g>
        </g>
    </g>
</svg>