<?xml version="1.0" encoding="UTF-8"?>
<svg width="195px" height="30px" viewBox="0 0 195 30" version="1.1" xmlns="http://www.w3.org/2000/svg" xmlns:xlink="http://www.w3.org/1999/xlink">
    <title>logo</title>
    <g id="logo" stroke="none" stroke-width="1" fill="none" fill-rule="evenodd">
        <g id="Group-7" transform="translate(-0.000000, 0.000000)">
            <path d="M49.302,23 L49.302,9.686 L54.3,9.686 L54.3,8.006 L42.309,8.006 L42.309,9.686 L47.307,9.686 L47.307,23 L49.302,23 Z M57.654,23 L57.654,16.133 L65.55,16.133 L65.55,23 L67.545,23 L67.545,8.006 L65.55,8.006 L65.55,14.453 L57.654,14.453 L57.654,8.006 L55.659,8.006 L55.659,23 L57.654,23 Z M80.937,23 L80.937,21.32 L72.516,21.32 L72.516,16.133 L80.307,16.133 L80.307,14.453 L72.516,14.453 L72.516,9.686 L80.874,9.686 L80.874,8.006 L70.521,8.006 L70.521,23 L80.937,23 Z M94.995,23.336 C95.877,23.336 96.752,23.1645 97.62,22.8215 C98.488,22.4785 99.216,21.915 99.804,21.131 L100.329,23 L101.589,23 L101.589,15.104 L95.016,15.104 L95.016,16.784 L99.804,16.784 C99.832,17.47 99.741,18.1105 99.531,18.7055 C99.321,19.3005 99.0095,19.8185 98.5965,20.2595 C98.1835,20.7005 97.676,21.047 97.074,21.299 C96.472,21.551 95.779,21.677 94.995,21.677 C94.155,21.677 93.4165,21.5125 92.7795,21.1835 C92.1425,20.8545 91.607,20.4135 91.173,19.8605 C90.739,19.3075 90.41,18.6705 90.186,17.9495 C89.962,17.2285 89.85,16.476 89.85,15.692 C89.85,14.894 89.948,14.1135 90.144,13.3505 C90.34,12.5875 90.6445,11.9085 91.0575,11.3135 C91.4705,10.7185 92.0025,10.239 92.6535,9.875 C93.3045,9.511 94.085,9.329 94.995,9.329 C95.555,9.329 96.0835,9.3955 96.5805,9.5285 C97.0775,9.6615 97.522,9.861 97.914,10.127 C98.306,10.393 98.635,10.7325 98.901,11.1455 C99.167,11.5585 99.349,12.052 99.447,12.626 L101.442,12.626 C101.302,11.744 101.0395,10.9915 100.6545,10.3685 C100.2695,9.7455 99.7935,9.231 99.2265,8.825 C98.6595,8.419 98.0155,8.1215 97.2945,7.9325 C96.5735,7.7435 95.807,7.649 94.995,7.649 C93.805,7.649 92.7655,7.8695 91.8765,8.3105 C90.9875,8.7515 90.2455,9.343 89.6505,10.085 C89.0555,10.827 88.6075,11.6915 88.3065,12.6785 C88.0055,13.6655 87.855,14.705 87.855,15.797 C87.855,16.777 88.016,17.722 88.338,18.632 C88.66,19.542 89.129,20.347 89.745,21.047 C90.361,21.747 91.11,22.3035 91.992,22.7165 C92.874,23.1295 93.875,23.336 94.995,23.336 Z M110.571,23.336 C111.761,23.336 112.804,23.1225 113.7,22.6955 C114.596,22.2685 115.345,21.691 115.947,20.963 C116.549,20.235 117.0005,19.3985 117.3015,18.4535 C117.6025,17.5085 117.753,16.525 117.753,15.503 C117.753,14.481 117.6025,13.4975 117.3015,12.5525 C117.0005,11.6075 116.549,10.771 115.947,10.043 C115.345,9.315 114.596,8.734 113.7,8.3 C112.804,7.866 111.761,7.649 110.571,7.649 C109.381,7.649 108.338,7.866 107.442,8.3 C106.546,8.734 105.797,9.315 105.195,10.043 C104.593,10.771 104.1415,11.6075 103.8405,12.5525 C103.5395,13.4975 103.389,14.481 103.389,15.503 C103.389,16.525 103.5395,17.5085 103.8405,18.4535 C104.1415,19.3985 104.593,20.235 105.195,20.963 C105.797,21.691 106.546,22.2685 107.442,22.6955 C108.338,23.1225 109.381,23.336 110.571,23.336 Z M110.571,21.677 C109.661,21.677 108.877,21.4985 108.219,21.1415 C107.561,20.7845 107.022,20.312 106.602,19.724 C106.182,19.136 105.874,18.4745 105.678,17.7395 C105.482,17.0045 105.384,16.259 105.384,15.503 C105.384,14.747 105.482,14.0015 105.678,13.2665 C105.874,12.5315 106.182,11.87 106.602,11.282 C107.022,10.694 107.561,10.2215 108.219,9.8645 C108.877,9.5075 109.661,9.329 110.571,9.329 C111.481,9.329 112.265,9.5075 112.923,9.8645 C113.581,10.2215 114.12,10.694 114.54,11.282 C114.96,11.87 115.268,12.5315 115.464,13.2665 C115.66,14.0015 115.758,14.747 115.758,15.503 C115.758,16.259 115.66,17.0045 115.464,17.7395 C115.268,18.4745 114.96,19.136 114.54,19.724 C114.12,20.312 113.581,20.7845 112.923,21.1415 C112.265,21.4985 111.481,21.677 110.571,21.677 Z M126.231,23.336 C127.421,23.336 128.464,23.1225 129.36,22.6955 C130.256,22.2685 131.005,21.691 131.607,20.963 C132.209,20.235 132.6605,19.3985 132.9615,18.4535 C133.2625,17.5085 133.413,16.525 133.413,15.503 C133.413,14.481 133.2625,13.4975 132.9615,12.5525 C132.6605,11.6075 132.209,10.771 131.607,10.043 C131.005,9.315 130.256,8.734 129.36,8.3 C128.464,7.866 127.421,7.649 126.231,7.649 C125.041,7.649 123.998,7.866 123.102,8.3 C122.206,8.734 121.457,9.315 120.855,10.043 C120.253,10.771 119.8015,11.6075 119.5005,12.5525 C119.1995,13.4975 119.049,14.481 119.049,15.503 C119.049,16.525 119.1995,17.5085 119.5005,18.4535 C119.8015,19.3985 120.253,20.235 120.855,20.963 C121.457,21.691 122.206,22.2685 123.102,22.6955 C123.998,23.1225 125.041,23.336 126.231,23.336 Z M126.231,21.677 C125.321,21.677 124.537,21.4985 123.879,21.1415 C123.221,20.7845 122.682,20.312 122.262,19.724 C121.842,19.136 121.534,18.4745 121.338,17.7395 C121.142,17.0045 121.044,16.259 121.044,15.503 C121.044,14.747 121.142,14.0015 121.338,13.2665 C121.534,12.5315 121.842,11.87 122.262,11.282 C122.682,10.694 123.221,10.2215 123.879,9.8645 C124.537,9.5075 125.321,9.329 126.231,9.329 C127.141,9.329 127.925,9.5075 128.583,9.8645 C129.241,10.2215 129.78,10.694 130.2,11.282 C130.62,11.87 130.928,12.5315 131.124,13.2665 C131.32,14.0015 131.418,14.747 131.418,15.503 C131.418,16.259 131.32,17.0045 131.124,17.7395 C130.928,18.4745 130.62,19.136 130.2,19.724 C129.78,20.312 129.241,20.7845 128.583,21.1415 C127.925,21.4985 127.141,21.677 126.231,21.677 Z M140.694,23 C141.94,23 143.018,22.825 143.928,22.475 C144.838,22.125 145.587,21.6175 146.175,20.9525 C146.763,20.2875 147.197,19.4685 147.477,18.4955 C147.757,17.5225 147.897,16.406 147.897,15.146 C147.897,12.738 147.274,10.946 146.028,9.77 C144.782,8.594 143.004,8.006 140.694,8.006 L135.549,8.006 L135.549,23 L140.694,23 Z M140.862,21.32 L137.544,21.32 L137.544,9.686 L140.904,9.686 C141.828,9.686 142.605,9.8155 143.235,10.0745 C143.865,10.3335 144.3795,10.7115 144.7785,11.2085 C145.1775,11.7055 145.4645,12.3075 145.6395,13.0145 C145.8145,13.7215 145.902,14.523 145.902,15.419 C145.902,16.343 145.8075,17.1305 145.6185,17.7815 C145.4295,18.4325 145.188,18.975 144.894,19.409 C144.6,19.843 144.2675,20.186 143.8965,20.438 C143.5255,20.69 143.151,20.8825 142.773,21.0155 C142.395,21.1485 142.038,21.2325 141.702,21.2675 C141.366,21.3025 141.086,21.32 140.862,21.32 Z M165.504,23 L165.504,21.32 L157.566,21.32 L157.566,8.006 L155.571,8.006 L155.571,23 L165.504,23 Z M169.026,23 L169.026,8.006 L167.031,8.006 L167.031,23 L169.026,23 Z M174.081,23 L174.081,16.133 L180.969,16.133 L180.969,14.453 L174.081,14.453 L174.081,9.686 L181.935,9.686 L181.935,8.006 L172.086,8.006 L172.086,23 L174.081,23 Z M194.256,23 L194.256,21.32 L185.835,21.32 L185.835,16.133 L193.626,16.133 L193.626,14.453 L185.835,14.453 L185.835,9.686 L194.193,9.686 L194.193,8.006 L183.84,8.006 L183.84,23 L194.256,23 Z" id="THEGOODLIFE" fill="#2E2D2C" fill-rule="nonzero"></path>
            <path d="M15.5644575,0 C23.0203016,0 29.0644575,6.04415588 29.0644575,13.5 C29.0644575,19.5461226 25.0898347,24.6639223 19.6109067,26.3830816 L30.4528053,26.3821551 L30.4528053,30 L0,30 L0,26.3821551 L11.5180082,26.3830816 C6.03908025,24.6639223 2.06445747,19.5461226 2.06445747,13.5 C2.06445747,6.04415588 8.10861335,0 15.5644575,0 Z M15.5644575,4 C10.3177523,4 6.06445747,8.25329488 6.06445747,13.5 C6.06445747,18.7467051 10.3177523,23 15.5644575,23 C20.8111626,23 25.0644575,18.7467051 25.0644575,13.5 C25.0644575,8.25329488 20.8111626,4 15.5644575,4 Z" id="Combined-Shape" fill="#E1A72C"></path>
        </g>
    </g>
</svg>